<svg xmlns="http://www.w3.org/2000/svg" viewBox="0 0 200 32" fill="none">
  <circle cx="16" cy="16" r="8" stroke="#ce422b" stroke-width="2.5" fill="none"/>
  <circle cx="16" cy="16" r="3.5" fill="#ce422b"/>
  <rect x="14.5" y="5" width="3" height="4" rx="1" fill="#ce422b"/>
  <rect x="14.5" y="23" width="3" height="4" rx="1" fill="#ce422b"/>
  <rect x="5" y="14.5" width="4" height="3" rx="1" fill="#ce422b"/>
  <rect x="23" y="14.5" width="4" height="3" rx="1" fill="#ce422b"/>
  <rect x="7.5" y="7.5" width="3" height="3" rx="0.8" fill="#ce422b" transform="rotate(45 9 9)"/>
  <rect x="20.5" y="20.5" width="3" height="3" rx="0.8" fill="#ce422b" transform="rotate(45 22 22)"/>
  <rect x="20.5" y="7.5" width="3" height="3" rx="0.8" fill="#ce422b" transform="rotate(45 22 9)"/>
  <rect x="7.5" y="20.5" width="3" height="3" rx="0.8" fill="#ce422b" transform="rotate(45 9 22)"/>
  <text x="36" y="21" font-family="'JetBrains Mono', monospace" font-size="14" font-weight="700" fill="#ce422b">Rust</text>
  <text x="72" y="21" font-family="'JetBrains Mono', monospace" font-size="14" font-weight="400" fill="#666">with</text>
  <text x="101" y="21" font-family="'JetBrains Mono', monospace" font-size="14" font-weight="700" fill="#2563eb">TypeScript</text>
</svg>
