<svg xmlns="http://www.w3.org/2000/svg" viewBox="0 0 200 32" fill="none">
  <!-- Rust 기어 모양 심볼 (단순화) -->
  <circle cx="16" cy="16" r="8" stroke="#e05a3a" stroke-width="2.5" fill="none"/>
  <circle cx="16" cy="16" r="3.5" fill="#e05a3a"/>
  <!-- 기어 톱니 -->
  <rect x="14.5" y="5" width="3" height="4" rx="1" fill="#e05a3a"/>
  <rect x="14.5" y="23" width="3" height="4" rx="1" fill="#e05a3a"/>
  <rect x="5" y="14.5" width="4" height="3" rx="1" fill="#e05a3a"/>
  <rect x="23" y="14.5" width="4" height="3" rx="1" fill="#e05a3a"/>
  <rect x="7.5" y="7.5" width="3" height="3" rx="0.8" fill="#e05a3a" transform="rotate(45 9 9)"/>
  <rect x="20.5" y="20.5" width="3" height="3" rx="0.8" fill="#e05a3a" transform="rotate(45 22 22)"/>
  <rect x="20.5" y="7.5" width="3" height="3" rx="0.8" fill="#e05a3a" transform="rotate(45 22 9)"/>
  <rect x="7.5" y="20.5" width="3" height="3" rx="0.8" fill="#e05a3a" transform="rotate(45 9 22)"/>
  <!-- 텍스트 -->
  <text x="36" y="21" font-family="'JetBrains Mono', monospace" font-size="14" font-weight="700" fill="#f4725a">Rust</text>
  <text x="72" y="21" font-family="'JetBrains Mono', monospace" font-size="14" font-weight="400" fill="#888">with</text>
  <text x="101" y="21" font-family="'JetBrains Mono', monospace" font-size="14" font-weight="700" fill="#4fc1e9">TypeScript</text>
</svg>
